<svg width="71" height="56" viewBox="0 0 71 56" fill="none" xmlns="http://www.w3.org/2000/svg">
<g clip-path="url(#clip0_1374_36)">
<path d="M39.8183 16.87L38.4859 15.87C38.2777 15.7043 38.0113 15.626 37.7447 15.6522C37.478 15.6784 37.2327 15.807 37.062 16.01L18.6221 36.83L18.9069 37.14L23.4736 33C23.3214 32.9398 23.1955 32.8291 23.1177 32.6871C23.0399 32.5451 23.0152 32.3807 23.0478 32.2227C23.0805 32.0646 23.1684 31.9227 23.2964 31.8218C23.4243 31.7208 23.5842 31.6671 23.7482 31.67C23.8961 31.67 24.0402 31.7166 24.1592 31.803C24.2781 31.8894 24.3658 32.011 24.4093 32.15L30.4305 26.66C30.5227 26.587 30.6376 26.5472 30.756 26.5472C30.8744 26.5472 30.9893 26.587 31.0815 26.66L31.3866 26.88C31.4898 26.9528 31.617 26.9849 31.7431 26.9701C31.8692 26.9553 31.9851 26.8946 32.0681 26.8L39.9404 18.12C40.024 18.0339 40.0879 17.931 40.1275 17.8184C40.1671 17.7058 40.1816 17.5862 40.1701 17.4676C40.1585 17.349 40.1211 17.2343 40.0604 17.1312C39.9997 17.028 39.9171 16.939 39.8183 16.87V16.87Z" fill="#303030"/>
<path d="M48.4852 22.73C44.4498 25.553 39.9292 27.6364 35.1409 28.88C30.3885 30.0683 25.5255 30.7786 20.627 31C20.7256 31.7102 20.9029 32.4077 21.1558 33.08C23.9223 35.54 44.7524 31.34 48.8208 26.48C49.6853 25.47 48.4852 22.73 48.4852 22.73ZM23.7494 33C23.6126 33 23.4789 32.9601 23.3652 32.8854C23.2514 32.8107 23.1628 32.7045 23.1105 32.5802C23.0581 32.456 23.0444 32.3192 23.0711 32.1873C23.0978 32.0554 23.1637 31.9342 23.2604 31.8391C23.3571 31.744 23.4803 31.6793 23.6145 31.653C23.7487 31.6268 23.8877 31.6403 24.0141 31.6917C24.1405 31.7432 24.2485 31.8304 24.3245 31.9422C24.4005 32.054 24.4411 32.1855 24.4411 32.32C24.4424 32.4097 24.4255 32.4987 24.3912 32.5818C24.3569 32.6649 24.306 32.7404 24.2415 32.8038C24.177 32.8672 24.1003 32.9173 24.0157 32.951C23.9312 32.9847 23.8406 33.0013 23.7494 33V33Z" fill="#303030"/>
<path d="M4.06841 21.2899L4.23115 20.5999L6.87559 21.1899C7.09376 21.5861 7.22866 22.0214 7.27226 22.4699C7.32274 22.945 7.29179 23.425 7.18072 23.8899C7.04906 24.5352 6.74744 25.1352 6.30602 25.6299C5.88605 26.097 5.34453 26.4428 4.7397 26.6299C4.11631 26.8189 3.45328 26.8431 2.81739 26.6999C2.1801 26.5646 1.59267 26.2603 1.11884 25.8199C0.652268 25.3969 0.317234 24.8526 0.152601 24.2499C-0.0300338 23.5954 -0.0300338 22.9045 0.152601 22.2499C0.261916 21.76 0.458164 21.2929 0.732345 20.8699C0.991845 20.4853 1.34041 20.1665 1.74944 19.9399L2.11559 20.4899C1.765 20.7016 1.46406 20.9839 1.23264 21.3183C1.00121 21.6527 0.844558 22.0316 0.773029 22.4299C0.646895 22.9473 0.657399 23.4877 0.803542 23.9999C0.940208 24.4863 1.21129 24.9259 1.5867 25.2699C1.97257 25.6367 2.45534 25.8896 2.98012 25.9999C3.489 26.1404 4.0274 26.1404 4.53628 25.9999C5.02376 25.8417 5.4616 25.5628 5.80764 25.1899C6.16326 24.7873 6.40834 24.3019 6.51961 23.7799C6.68695 23.1468 6.64419 22.4776 6.39756 21.8699L4.06841 21.2899Z" fill="#303030"/>
<path d="M9.82506 15.0001L7.45523 18.1101L8.47232 19.9001L8.00446 20.5201L4.24121 13.7701L4.67856 13.1801L12.3373 14.8001L11.8592 15.4201L9.82506 15.0001ZM9.15377 14.8401L5.0854 13.9401L7.11959 17.5301L9.15377 14.8401Z" fill="#303030"/>
<path d="M9.1543 8.54998L9.76455 8.09998L13.6397 13.2L16.8334 10.85L17.2199 11.36L13.4261 14.15L9.1543 8.54998Z" fill="#303030"/>
<path d="M15.5615 4.37996L16.243 4.07996L18.9281 9.85996L22.5591 8.23996L22.8236 8.81996L18.5111 10.75L15.5615 4.37996Z" fill="#303030"/>
<path d="M28.967 6.68003L29.1196 7.31003L24.2172 8.44003L22.5898 1.62003L27.3498 0.530029L27.4922 1.15003L23.4239 2.08003L24.0036 4.50003L27.5838 3.67003L27.7363 4.29003L24.146 5.11003L24.7563 7.64003L28.967 6.68003Z" fill="#303030"/>
<path d="M35.954 6.92997L34.2555 4.72997C34.0658 4.74029 33.8756 4.74029 33.6859 4.72997L31.7738 4.78997L31.845 7.00997H31.0923L30.8584 0.00996866L33.5639 -3.1339e-05C34.3288 -0.0694894 35.0937 0.132721 35.7201 0.569969C35.9841 0.778962 36.1963 1.04418 36.3408 1.3456C36.4853 1.64702 36.5582 1.97678 36.5541 2.30997C36.5838 2.80416 36.452 3.29473 36.1778 3.70997C35.8855 4.10853 35.4726 4.40603 34.998 4.55997L36.7779 6.89997L35.954 6.92997ZM35.2421 3.63997C35.4249 3.47531 35.5667 3.27154 35.6567 3.04439C35.7466 2.81725 35.7822 2.57281 35.7608 2.32997C35.766 2.08584 35.7147 1.84374 35.6108 1.62198C35.5068 1.40022 35.3529 1.20461 35.1607 1.04997C34.6919 0.737448 34.1282 0.592707 33.5639 0.639969L31.6314 0.709969L31.7534 4.20997L33.6452 4.14997C34.2221 4.17096 34.7879 3.99026 35.2421 3.63997V3.63997Z" fill="#303030"/>
<path d="M41.3348 5.07L40.9686 7.46L40.2261 7.35L40.6025 5L38.4971 0L39.2904 0.12L41.0907 4.38L44.1419 0.85L44.8539 1L41.3348 5.07Z" fill="#303030"/>
<path d="M51.3941 4.65005L52.279 5.78005L51.8925 6.08005L51.0076 4.92005L50.4482 6.23005L50.021 6.05005L50.5906 4.74005L49.126 4.93005V4.45005L50.5703 4.29005L49.6752 3.16005L50.0719 2.86005L50.855 4.00005L51.4043 2.68005L51.8416 2.86005L51.3229 4.20005L52.7875 4.00005V4.49005L51.3941 4.65005Z" fill="#303030"/>
<path d="M54.7909 12.71C54.5507 12.346 54.4009 11.9315 54.3535 11.5L54.9536 11.24C54.9986 11.6364 55.1305 12.0185 55.3401 12.36C55.5673 12.743 55.8637 13.0819 56.2148 13.36C56.5773 13.7013 57.0399 13.9217 57.537 13.99C57.7166 14.0064 57.8976 13.9794 58.0642 13.9115C58.2308 13.8435 58.378 13.7366 58.4931 13.6C58.5774 13.5085 58.6418 13.4009 58.682 13.284C58.7222 13.167 58.7376 13.0431 58.727 12.92C58.6934 12.6763 58.6104 12.4417 58.4829 12.23C58.2918 11.9231 58.0847 11.626 57.8625 11.34C57.5917 10.9912 57.347 10.6236 57.1302 10.24C56.9645 9.95296 56.8736 9.63003 56.8657 9.30004C56.865 8.92946 57.0067 8.5723 57.2624 8.30004C57.4841 8.03617 57.7765 7.83869 58.1066 7.73004C58.4754 7.62531 58.8668 7.62531 59.2356 7.73004C59.7107 7.88282 60.1499 8.12763 60.5273 8.45004C60.8404 8.70611 61.1175 9.00205 61.3511 9.33004C61.5672 9.6342 61.7288 9.97239 61.8292 10.33L61.2494 10.63C61.1483 10.2967 60.9975 9.97991 60.8019 9.69004C60.6071 9.43118 60.3779 9.19913 60.1204 9.00004C59.7633 8.66028 59.3021 8.44587 58.8084 8.39004C58.627 8.37512 58.4446 8.40478 58.2777 8.47635C58.1108 8.54792 57.9646 8.65915 57.8523 8.80004C57.7658 8.89013 57.7001 8.99753 57.6597 9.11489C57.6194 9.23226 57.6053 9.35681 57.6184 9.48004C57.6422 9.73221 57.7258 9.97538 57.8625 10.19C58.0049 10.42 58.2083 10.72 58.4829 11.08C58.7552 11.4208 59 11.7819 59.2152 12.16C59.3845 12.4462 59.4788 12.7692 59.4898 13.1C59.4905 13.4706 59.3489 13.8278 59.0932 14.1C58.8707 14.3675 58.5738 14.5656 58.2388 14.67C57.8707 14.7793 57.478 14.7793 57.1098 14.67C56.6314 14.5177 56.1888 14.2729 55.808 13.95C55.3974 13.5987 55.0531 13.179 54.7909 12.71V12.71Z" fill="#303030"/>
<path d="M65.0227 14.17L63.5886 12.17L64.1175 11.8L67.423 16.44L66.8941 16.81L65.46 14.81L60.1508 18.46L59.7236 17.85L65.0227 14.17Z" fill="#303030"/>
<path d="M62.7446 22.39C62.9262 21.7856 63.2789 21.2445 63.7617 20.83C64.2339 20.4141 64.8092 20.1279 65.4297 20C66.0622 19.8572 66.7219 19.8814 67.3419 20.07C67.9403 20.2645 68.4767 20.6092 68.898 21.07C69.3362 21.5656 69.6343 22.1656 69.7625 22.81C69.931 23.4426 69.931 24.1073 69.7625 24.74C69.576 25.3421 69.224 25.8819 68.7454 26.3C68.2601 26.727 67.6707 27.0233 67.0344 27.16C66.3981 27.2967 65.7367 27.2691 65.1144 27.08C64.5115 26.8949 63.9727 26.5487 63.5583 26.08C63.1221 25.587 62.8241 24.9907 62.6937 24.35C62.5384 23.7033 62.5559 23.028 62.7446 22.39V22.39ZM64.077 25.57C64.4166 25.9502 64.8566 26.2306 65.3484 26.38C65.8552 26.5245 66.3908 26.5417 66.9062 26.4298C67.4215 26.318 67.9 26.0808 68.2979 25.74C68.6733 25.4004 68.9506 24.9691 69.1014 24.49C69.2433 23.9841 69.2572 23.4517 69.1419 22.9393C69.0267 22.4269 68.7858 21.95 68.4403 21.55C68.0858 21.1679 67.6323 20.8879 67.1283 20.74C66.6151 20.606 66.0752 20.606 65.5619 20.74C65.0441 20.8377 64.5647 21.0768 64.1787 21.43C63.7998 21.7708 63.5221 22.2062 63.3752 22.69C63.2371 23.1977 63.2371 23.7322 63.3752 24.24C63.4866 24.7361 63.7286 25.1947 64.077 25.57V25.57Z" fill="#303030"/>
<path d="M61.9716 34L64.6058 33C64.6058 32.82 64.6669 32.64 64.7177 32.45L65.2161 30.64L63.0599 30.09L63.2531 29.38L70.1287 31.19L69.437 33.72C69.2812 34.4582 68.8629 35.1177 68.2572 35.58C67.9789 35.7701 67.6596 35.8942 67.3244 35.9428C66.9891 35.9914 66.647 35.963 66.3247 35.86C65.8339 35.7553 65.3941 35.4892 65.0779 35.1056C64.7617 34.722 64.588 34.2438 64.5855 33.75L61.7783 34.75L61.9716 34ZM65.3788 34.28C65.498 34.4925 65.6596 34.6792 65.854 34.8287C66.0484 34.9782 66.2715 35.0876 66.51 35.1502C66.7485 35.2128 66.9973 35.2273 67.2417 35.1929C67.486 35.1585 67.7207 35.0759 67.9317 34.95C68.3807 34.5955 68.687 34.0958 68.7963 33.54L69.2845 31.74L65.8365 30.83L65.3483 32.63C65.1607 33.1664 65.1715 33.7507 65.3788 34.28V34.28Z" fill="#303030"/>
<path d="M58.3205 40.44L57.8018 40.05L60.853 36.1L66.5284 40.33L63.5788 44.16L63.0601 43.77L65.552 40.54L63.5178 39.03L61.2904 41.92L60.7818 41.54L63.0601 38.65L60.9547 37.08L58.3205 40.44Z" fill="#303030"/>
<path d="M55.9408 48.41L54.4863 48.49V48.01L55.9408 48L55.1576 46.81L55.5543 46.56L56.3273 47.76L56.9579 46.42L57.3952 46.65L56.7036 47.91L58.158 47.83V48.32H56.6833L57.4664 49.51L57.0697 49.76L56.2968 48.56L55.6255 49.86L55.1983 49.62L55.9408 48.41Z" fill="#303030"/>
<path d="M42.7176 47.61L43.9483 48.28C44.1546 47.8904 44.4425 47.5481 44.7932 47.2757C45.1438 47.0034 45.5491 46.8072 45.9824 46.7C46.3867 46.5761 46.8118 46.5319 47.2335 46.57C47.5993 46.5976 47.9508 46.722 48.2506 46.93C48.5216 47.1309 48.721 47.4109 48.8201 47.73C48.9427 48.1248 48.9211 48.5493 48.7591 48.93C48.5039 49.4474 48.1598 49.9176 47.742 50.32C48.0773 50.4972 48.3884 50.7156 48.6676 50.97C48.8594 51.1649 49.0022 51.4012 49.0846 51.66C49.1367 51.8618 49.1399 52.0728 49.094 52.276C49.0481 52.4792 48.9543 52.669 48.8201 52.83C48.5486 53.2147 48.1435 53.4885 47.681 53.6C47.2749 53.7523 46.8259 53.7523 46.4198 53.6C46.2392 53.5237 46.0791 53.4072 45.952 53.2597C45.8249 53.1122 45.7344 52.9377 45.6875 52.75C45.5808 52.4199 45.6063 52.0623 45.7587 51.75C45.9921 51.2954 46.2977 50.8802 46.6639 50.52L44.2127 49.18C44.1192 49.651 44.0986 50.1331 44.1517 50.61H43.5312C43.4895 50.0227 43.5584 49.4328 43.7347 48.87L42.4531 48.17L42.7176 47.61ZM44.4873 48.61L47.1826 50.08C47.5358 49.7484 47.8283 49.3593 48.0471 48.93C48.1589 48.6401 48.1589 48.32 48.0471 48.03C48.001 47.8568 47.9118 47.6975 47.7875 47.5666C47.6632 47.4357 47.5078 47.3372 47.3352 47.28C46.9129 47.1398 46.4555 47.1398 46.0333 47.28C45.6883 47.3695 45.3674 47.5323 45.0932 47.7569C44.8191 47.9815 44.5984 48.2625 44.4466 48.58L44.4873 48.61ZM48.3116 52.61C48.378 52.4995 48.4197 52.3763 48.4337 52.2487C48.4478 52.1211 48.4339 51.9919 48.393 51.87C48.3306 51.6726 48.2187 51.4937 48.0675 51.35C47.8086 51.1353 47.5253 50.9508 47.2233 50.8C46.9149 51.0998 46.6451 51.4357 46.4198 51.8C46.2968 52.0272 46.2677 52.2923 46.3384 52.54C46.3707 52.6545 46.4272 52.7609 46.5044 52.8522C46.5815 52.9436 46.6775 53.0178 46.7859 53.07C47.0449 53.166 47.3305 53.166 47.5894 53.07C47.866 52.9975 48.1074 52.831 48.2709 52.6L48.3116 52.61Z" fill="#303030"/>
<path d="M30.3193 55.3199L30.4617 48.3199H31.1839L31.072 53.9199L33.9605 49.2599H34.3165L37.022 53.9999L37.1237 48.4299H37.8458L37.7136 55.4299H37.0932L34.1029 50.1999L30.9398 55.3299L30.3193 55.3199Z" fill="#303030"/>
<path d="M26.7796 48C27.2447 48.4358 27.5775 48.9901 27.741 49.601C27.9044 50.212 27.892 50.8556 27.7052 51.46C27.538 52.0789 27.2042 52.642 26.7389 53.09C26.2867 53.527 25.7197 53.8317 25.1014 53.97C24.4491 54.1147 23.7702 54.094 23.1282 53.91C22.4885 53.7564 21.8999 53.4429 21.4195 53C20.9613 52.5697 20.6339 52.0227 20.4736 51.42C20.3172 50.7969 20.3288 50.1446 20.5071 49.5273C20.6855 48.91 21.0245 48.3491 21.4907 47.9C21.9349 47.4641 22.4898 47.1533 23.0977 47C23.7466 46.8557 24.4222 46.8763 25.0607 47.06C25.7071 47.221 26.2995 47.545 26.7796 48V48ZM23.3113 47.65C22.8138 47.7639 22.359 48.0134 21.9993 48.37C21.6246 48.7369 21.3576 49.1963 21.2263 49.7C21.0844 50.2004 21.0844 50.7295 21.2263 51.23C21.3462 51.7169 21.6036 52.1606 21.9688 52.51C22.3517 52.8782 22.8245 53.1433 23.3418 53.28C23.8591 53.4095 24.4011 53.4095 24.9183 53.28C25.4162 53.1596 25.8726 52.9111 26.2405 52.56C26.6132 52.1916 26.8799 51.7327 27.0135 51.23C27.1557 50.7262 27.1557 50.1938 27.0135 49.69C26.8834 49.2049 26.6235 48.7629 26.2609 48.41C25.8759 48.0413 25.3987 47.7791 24.8776 47.65C24.3651 47.5107 23.8238 47.5107 23.3113 47.65V47.65Z" fill="#303030"/>
<path d="M15.6122 43L15.8868 45.75C16.0612 45.8233 16.2311 45.9068 16.3953 46L18.0532 46.94L19.172 45L19.8331 45.37L16.2733 51.4L13.9543 50.09C13.2689 49.7515 12.7281 49.1844 12.4287 48.49C12.3181 48.1772 12.2808 47.8439 12.3195 47.5149C12.3583 47.1859 12.4721 46.8698 12.6524 46.59C12.8888 46.1518 13.2636 45.8008 13.7204 45.59C14.1842 45.4011 14.6973 45.3626 15.185 45.48L14.89 42.54L15.6122 43ZM14.4527 46.16C14.2138 46.219 13.9895 46.3247 13.7931 46.4708C13.5967 46.617 13.4324 46.8006 13.3099 47.0107C13.1874 47.2207 13.1093 47.4529 13.0802 47.6934C13.0511 47.9338 13.0717 48.1776 13.1406 48.41C13.379 48.9276 13.7923 49.3481 14.3103 49.6L15.9478 50.53L17.7277 47.53L16.0902 46.6C15.6195 46.2533 15.04 46.0799 14.4527 46.11V46.16Z" fill="#303030"/>
<path d="M9.59166 38.31L10.0494 37.86L13.5583 41.41L8.47286 46.29L5.08594 42.85L5.5538 42.4L8.43218 45.31L10.1714 43.58L7.64901 41L8.13722 40.54L10.7105 43.14L12.6023 41.33L9.59166 38.31Z" fill="#303030"/>
<path d="M2.03425 34.38L2.27835 33L2.75638 33.07L2.48177 34.49L3.8345 34L3.99724 34.44L2.62416 34.9L3.75313 35.84L3.42766 36.2L2.33937 35.2L2.0851 36.62L1.59689 36.53L1.88168 35.11L0.518775 35.59L0.366211 35.2L1.72912 34.73L0.600143 33.8L0.935784 33.44L2.03425 34.38Z" fill="#303030"/>
</g>
<defs>
<clipPath id="clip0_1374_36">
<rect width="70.1083" height="55.46" fill="white"/>
</clipPath>
</defs>
</svg>
